<svg width="62" height="62" viewBox="0 0 62 62" fill="none" xmlns="http://www.w3.org/2000/svg">
<path fill-rule="evenodd" clip-rule="evenodd" d="M62 0H58.4645H57H5H0V5V57V58.4645V62H3.53554H5H57H62V57V5V3.53554V0ZM57 8.53554L8.53554 57H57V8.53554ZM5 53.4645L53.4645 5H5V53.4645ZM17.2287 21.3626V27H14V11H20.113C21.2897 11 22.3229 11.2198 23.2126 11.6593C24.1094 12.0989 24.7982 12.7253 25.2789 13.5385C25.7596 14.3443 26 15.2637 26 16.2967C26 17.8645 25.4726 19.1026 24.4179 20.011C23.3704 20.9121 21.9175 21.3626 20.0592 21.3626H17.2287ZM17.2287 18.6923H20.113C20.9668 18.6923 21.6161 18.4872 22.061 18.0769C22.513 17.6667 22.739 17.0806 22.739 16.3187C22.739 15.5348 22.513 14.9011 22.061 14.4176C21.609 13.9341 20.9848 13.685 20.1883 13.6703H17.2287V18.6923ZM40.2287 51V45.3626H43.0592C44.9175 45.3626 46.3704 44.9121 47.4179 44.011C48.4726 43.1026 49 41.8645 49 40.2967C49 39.2637 48.7596 38.3443 48.2789 37.5385C47.7982 36.7253 47.1094 36.0989 46.2126 35.6593C45.3229 35.2198 44.2897 35 43.113 35H37V51H40.2287ZM43.113 42.6923H40.2287V37.6703H43.1883C43.9848 37.685 44.609 37.9341 45.061 38.4176C45.513 38.9011 45.739 39.5348 45.739 40.3187C45.739 41.0806 45.513 41.6667 45.061 42.0769C44.6161 42.4872 43.9668 42.6923 43.113 42.6923Z" fill="white"/>
</svg>
